# Blender v2.78 (sub 0) OBJ File: 'window-.blend'
# www.blender.org
mtllib window-.mtl
o Cube_Cube.001
v -0.109495 0.036625 3.034003
v -0.109495 2.036625 3.034003
v -0.109495 0.036625 -3.007869
v -0.109495 2.036625 -3.007869
v 0.078188 0.036625 3.034003
v 0.078188 2.036625 3.034003
v 0.078188 0.036625 -3.007869
v 0.078188 2.036625 -3.007869
v -0.109495 0.193909 3.034003
v -0.109495 0.193909 -3.007869
v 0.078188 0.193909 -3.007869
v 0.078188 0.193909 3.034003
v -0.109495 0.193909 3.034003
v -0.109495 0.193909 -3.007869
v 0.078188 0.193909 -3.007869
v 0.078188 0.193909 3.034003
v 0.078188 0.036625 3.034003
v 0.078188 0.193909 3.034003
v -0.109495 0.193909 3.034003
v -0.109495 0.036625 3.034003
v 0.078188 0.036625 -3.007869
v 0.078188 0.193909 -3.007869
v 0.078188 0.193909 3.034003
v 0.078188 0.036625 3.034003
v -0.109495 0.036625 -3.007869
v -0.109495 0.193909 -3.007869
v 0.078188 0.193909 -3.007869
v 0.078188 0.036625 -3.007869
v -0.109495 0.036625 3.034003
v -0.109495 0.193909 3.034003
v -0.109495 0.193909 -3.007869
v -0.109495 0.036625 -3.007869
v 0.078188 0.193909 3.034003
v 0.078188 0.036625 3.034003
v -0.109495 0.193909 3.034003
v -0.109495 0.036625 3.034003
v 0.078188 0.193909 -3.007869
v 0.078188 0.036625 -3.007869
v 0.078188 0.193909 3.034003
v 0.078188 0.036625 3.034003
v -0.109495 0.193909 -3.007869
v -0.109495 0.036625 -3.007869
v 0.078188 0.193909 -3.007869
v 0.078188 0.036625 -3.007869
v -0.109495 0.193909 3.034003
v -0.109495 0.036625 3.034003
v -0.109495 0.193909 -3.007869
v -0.109495 0.036625 -3.007869
v 0.078188 0.193909 3.034003
v 0.078188 0.036625 3.034003
v -0.109495 0.193909 3.034003
v -0.109495 0.036625 3.034003
v 0.078188 0.193909 -3.007869
v 0.078188 0.036625 -3.007869
v 0.078188 0.193909 3.034003
v 0.078188 0.036625 3.034003
v -0.109495 0.193909 -3.007869
v -0.109495 0.036625 -3.007869
v 0.078188 0.193909 -3.007869
v 0.078188 0.036625 -3.007869
v -0.109495 0.193909 3.034003
v -0.109495 0.036625 3.034003
v -0.109495 0.193909 -3.007869
v -0.109495 0.036625 -3.007869
v 0.078188 0.193909 3.034003
v 0.078188 0.036625 3.034003
v -0.109495 0.193909 3.034003
v -0.109495 0.036625 3.034003
v 0.106045 0.036625 -3.007869
v 0.106045 0.036625 3.034003
v -0.109495 0.193909 -3.007869
v -0.109495 0.036625 -3.007869
v 0.078188 0.193909 -3.007869
v 0.078188 0.036625 -3.007869
v -0.109495 0.193909 3.034003
v -0.109495 0.036625 3.034003
v -0.109495 0.193909 -3.007869
v -0.109495 0.036625 -3.007869
v 0.078188 2.036625 -3.007869
v 0.078188 2.036625 3.034003
v -0.109495 2.036625 1.053827
v 0.078188 2.036625 1.053827
v 0.078188 2.036625 1.053827
v -0.109495 2.036625 -0.977021
v 0.078188 2.036625 -0.977021
v 0.078188 2.036625 -0.977021
v -0.109495 0.753871 3.034003
v -0.109495 0.753871 -3.007869
v 0.078188 0.753871 -3.007869
v 0.078188 0.753871 3.034003
v -0.109495 1.666522 3.034003
v -0.109495 1.666522 -3.007869
v 0.078188 1.666522 -3.007869
v 0.078188 1.666522 3.034003
v 0.078188 1.666522 -3.007869
v 0.078188 1.666522 3.034003
v 0.078188 1.666522 1.053827
v 0.078188 1.666522 -0.977021
v -0.109495 0.753871 1.042937
v -0.109495 1.666522 1.042937
v -0.109495 0.753871 -0.958610
v -0.109495 1.666522 -0.958610
v 0.078188 0.753871 -3.007869
v 0.078188 0.753871 3.034003
v 0.078188 0.753871 1.053827
v 0.078188 0.753871 -0.977021
v -0.109495 1.666522 3.034003
v 0.078188 1.666522 3.034003
v 0.078188 1.666522 3.034003
v 0.078188 1.666522 1.053827
v 0.078188 1.666522 -0.977021
v -0.109495 0.753871 1.042937
v -0.109495 1.666522 1.042937
v -0.109495 0.753871 -0.958610
v -0.109495 1.666522 -0.958610
v 0.078188 1.666522 1.053827
v 0.078188 0.753871 1.053827
v 0.078188 1.666522 -0.977021
v 0.078188 0.753871 -0.977021
v 0.078188 0.753871 -3.007869
v 0.078188 0.753871 3.034003
v 0.078188 0.753871 3.034003
v -0.109495 0.753871 3.034003
v -0.109495 0.753871 -0.958610
v 0.078188 1.666522 3.034003
v 0.078188 1.666522 3.034003
v -0.109495 1.666522 3.034003
v -0.109495 0.753871 1.042937
v -0.109495 1.666522 1.042937
v -0.109495 1.666522 -0.958610
v 0.078188 0.193909 -3.007869
v 0.106045 0.159769 -3.007869
v 0.106045 0.159769 3.034003
v 0.078188 0.193909 3.034003
v 0.078188 0.839236 -0.977021
v -0.109495 0.839236 -0.958610
v -0.109495 0.839236 1.042937
v 0.078188 0.839236 1.053827
v -0.109495 1.666522 3.034003
v 0.078188 1.666522 3.034003
v 0.078188 1.666522 3.034003
v 0.078188 1.666522 3.034003
v 0.078188 1.666522 1.053827
v 0.078188 0.753871 1.053827
v -0.109495 0.753871 1.042937
v -0.109495 1.666522 1.042937
v -0.109495 1.666522 3.034003
v 0.175253 0.753871 -0.977021
v 0.175253 0.839236 -0.977021
v 0.175253 0.839236 1.053827
v 0.175253 0.753871 1.053827
v 0.078188 0.839236 -0.977021
v 0.078188 0.753871 -0.977021
v 0.175253 0.839236 -0.977021
v 0.175253 0.753871 -0.977021
v 0.078188 0.839236 -1.104254
v 0.078188 0.753871 -1.104254
v 0.175253 0.839236 -1.104254
v 0.175253 0.753871 -1.104254
v 0.078188 0.753871 1.053827
v 0.078188 0.839236 1.053827
v 0.175253 0.753871 1.053827
v 0.175253 0.839236 1.053827
v 0.078188 0.753871 1.164613
v 0.078188 0.839236 1.164613
v 0.175253 0.753871 1.164613
v 0.175253 0.839236 1.164613
v 0.078188 0.839236 1.053827
v 0.175253 0.839236 1.053827
v 0.078188 0.839236 1.164613
v 0.175253 0.839236 1.164613
v 0.078188 1.776773 1.053827
v 0.175253 1.776773 1.053827
v 0.078188 1.776773 1.164613
v 0.175253 1.776773 1.164613
v 0.078188 0.839236 -0.977021
v 0.175253 0.839236 -0.977021
v 0.078188 0.839236 -1.104254
v 0.175253 0.839236 -1.104254
v 0.078188 1.776700 -0.977021
v 0.177432 1.776700 -0.977021
v 0.078188 1.774322 -1.104254
v 0.175253 1.774322 -1.104254
v 0.208958 1.666439 1.053827
v 0.175253 1.665549 1.164613
v 0.078188 1.666439 1.053827
v 0.078188 1.665549 1.164613
v 0.175253 1.658610 -1.104254
v 0.216596 1.658610 -0.977021
v 0.078188 1.658610 -0.977021
v 0.078188 1.658610 -1.104254
v 0.078188 1.776700 1.057492
v 0.177432 1.776700 1.057492
v 0.208091 1.662500 1.060349
v 0.069682 1.662500 1.060349
v 0.078188 0.883870 -0.977021
v 0.078188 0.883870 1.053827
v 0.175253 0.883870 1.053827
v 0.175253 0.883870 -0.977021
v 0.078188 0.839236 -0.977021
v 0.175253 0.839236 -0.977021
v 0.175253 1.658610 -0.977021
v 0.078188 1.658610 -0.977021
v 0.078188 0.839236 -0.912993
v 0.231209 0.839236 -0.977021
v 0.231209 0.839236 1.053827
v 0.078188 1.658610 -0.912993
v 0.078188 0.839236 0.985671
v 0.078188 1.666439 0.985671
v 0.214417 1.603137 -0.977021
v 0.078188 1.603137 -0.977021
v 0.205911 1.607028 1.056723
v 0.069682 1.607028 1.056723
v 0.152546 0.839236 0.985671
v 0.175253 0.839236 1.008378
v 0.175253 1.666439 1.008378
v 0.152546 1.666439 0.985671
v 0.175253 0.839236 -0.934970
v 0.153275 0.839236 -0.912993
v 0.153275 1.658610 -0.912993
v 0.175253 1.658610 -0.934970
v 0.231209 0.866876 1.053827
v 0.214215 0.883870 1.053827
v 0.214215 0.883870 -0.977021
v 0.231209 0.866876 -0.977021
vt 0.7931 0.1519
vt 0.7973 0.1385
vt 0.8385 0.1206
vt 0.8882 0.0977
vt 0.9162 0.0762
vt 0.9253 0.0721
vt 0.8940 0.1072
vt 0.8428 0.1295
vt 0.8362 0.1156
vt 0.7932 0.1353
vt 0.7930 0.1350
vt 0.8358 0.1148
vt 0.7855 0.1488
vt 0.4722 0.7916
vt 0.4718 0.8036
vt 0.0329 0.7934
vt 0.0340 0.7805
vt 0.8861 0.0937
vt 0.9150 0.0745
vt 0.4766 0.7864
vt 0.4732 0.7932
vt 0.4737 0.7939
vt 0.4761 0.7856
vt 0.0217 0.7870
vt 0.0328 0.7934
vt 0.0327 0.7933
vt 0.0217 0.7870
vt 0.0203 0.6914
vt 0.5057 0.7068
vt 0.5051 0.7060
vt 0.0208 0.6910
vt 0.5050 0.7317
vt 0.0206 0.7300
vt 0.0208 0.7300
vt 0.5045 0.7325
vt 0.2701 0.3139
vt 0.0865 0.3139
vt 0.0863 0.3137
vt 0.2703 0.3137
vt 0.0864 0.3220
vt 0.2701 0.3220
vt 0.2703 0.3222
vt 0.0863 0.3222
vt 0.4717 0.7916
vt 0.4781 0.7887
vt 0.4786 0.7895
vt 0.4712 0.7916
vt 0.0217 0.7868
vt 0.0217 0.7867
vt 0.0326 0.7931
vt 0.0194 0.6923
vt 0.0189 0.6927
vt 0.0102 0.7073
vt 0.0102 0.7073
vt 0.0236 0.7005
vt 0.0244 0.7004
vt 0.0224 0.7145
vt 0.0221 0.7142
vt 0.0185 0.6932
vt 0.0102 0.7072
vt 0.4770 0.8076
vt 0.4765 0.8084
vt 0.4723 0.8029
vt 0.0206 0.7300
vt 0.0206 0.7300
vt 0.5056 0.7308
vt 0.5061 0.7300
vt 0.0329 0.7934
vt 0.0217 0.7869
vt 0.5004 0.7257
vt 0.5009 0.7248
vt 0.0224 0.7145
vt 0.4760 0.8091
vt 0.4727 0.8021
vt 0.4777 0.7879
vt 0.5066 0.7292
vt 0.5073 0.7094
vt 0.5068 0.7086
vt 0.4713 0.8036
vt 0.4775 0.8069
vt 0.5008 0.7125
vt 0.5003 0.7125
vt 0.4999 0.7256
vt 0.0217 0.7867
vt 0.0323 0.7928
vt 0.0301 0.7730
vt 0.0306 0.7726
vt 0.0336 0.7809
vt 0.5062 0.7077
vt 0.0199 0.6919
vt 0.4727 0.7924
vt 0.4771 0.7871
vt 0.0231 0.7009
vt 0.5014 0.7134
vt 0.0310 0.7722
vt 0.0332 0.7813
vt 0.0252 0.7004
vt 0.5072 0.7284
vt 0.5078 0.7103
vt 0.0218 0.7138
vt 0.4709 0.8036
vt 0.4780 0.8061
vt 0.5014 0.7240
vt 0.0223 0.7145
vt 0.4998 0.7125
vt 0.4994 0.7256
vt 0.0227 0.7013
vt 0.5019 0.7143
vt 0.4729 0.8016
vt 0.4737 0.8087
vt 0.0318 0.8044
vt 0.0321 0.7954
vt 0.4989 0.7256
vt 0.4993 0.7125
vt 0.4988 0.7125
vt 0.4984 0.7256
vt 0.0260 0.7003
vt 0.0214 0.7135
vt 0.0211 0.7132
vt 0.0268 0.7003
vt 0.4785 0.8054
vt 0.4704 0.8036
vt 0.4699 0.8035
vt 0.4790 0.8046
vt 0.5019 0.7231
vt 0.0222 0.7145
vt 0.0217 0.7867
vt 0.0320 0.7925
vt 0.0223 0.7018
vt 0.5025 0.7151
vt 0.4790 0.7903
vt 0.4708 0.7916
vt 0.0180 0.6936
vt 0.0102 0.7072
vt 0.5077 0.7275
vt 0.5083 0.7111
vt 0.0293 0.7738
vt 0.0354 0.7804
vt 0.0362 0.7804
vt 0.0288 0.7742
vt 0.4755 0.8099
vt 0.4732 0.8013
vt 0.0314 0.7718
vt 0.0328 0.7817
vt 0.0324 0.7821
vt 0.0319 0.7714
vt 0.4755 0.7848
vt 0.4742 0.7947
vt 0.0210 0.7300
vt 0.5038 0.7332
vt 0.0317 0.7922
vt 0.0217 0.7866
vt 0.0284 0.7746
vt 0.0369 0.7803
vt 0.0230 0.7905
vt 0.0217 0.7870
vt 0.5045 0.7051
vt 0.0213 0.6905
vt 0.0218 0.7022
vt 0.5030 0.7160
vt 0.4794 0.7911
vt 0.4703 0.7916
vt 0.0175 0.6941
vt 0.0102 0.7071
vt 0.8857 0.0930
vt 0.7891 0.1270
vt 0.8318 0.1064
vt 0.8806 0.0828
vt 0.9198 0.0677
vt 0.9148 0.0743
vt 0.9208 0.0666
vt 0.9545 0.0523
vt 0.9489 0.0461
vt 0.1587 0.3134
vt 0.0863 0.3134
vt 0.0863 0.3121
vt 0.0863 0.2788
vt 0.1587 0.2788
vt 0.1587 0.3121
vt 0.2673 0.2806
vt 0.2673 0.2800
vt 0.2673 0.2794
vt 0.2673 0.2788
vt 0.3018 0.2791
vt 0.3018 0.2797
vt 0.9510 0.3039
vt 0.9266 0.3015
vt 0.9274 0.2933
vt 0.9518 0.2957
vt 0.9774 0.0326
vt 0.9690 0.0231
vt 0.9358 0.2066
vt 0.9416 0.1296
vt 0.7852 0.1487
vt 0.8876 0.2895
vt 0.8961 0.2028
vt 0.8868 0.2977
vt 0.1822 0.3024
vt 0.1706 0.3024
vt 0.1706 0.3021
vt 0.1822 0.3021
vt 0.5539 0.0873
vt 0.5539 0.8930
vt 0.5399 0.8930
vt 0.5399 0.0873
vt 0.3030 0.3003
vt 0.3030 0.2844
vt 0.3032 0.2844
vt 0.3032 0.3003
vt 0.2055 0.3022
vt 0.1938 0.3024
vt 0.1938 0.3021
vt 0.2055 0.3020
vt 0.2298 0.3018
vt 0.1943 0.3018
vt 0.1943 0.3012
vt 0.2298 0.3012
vt 0.3027 0.2824
vt 0.2673 0.2824
vt 0.2673 0.2817
vt 0.3027 0.2817
vt 0.2673 0.2809
vt 0.3027 0.2809
vt 0.3027 0.2815
vt 0.2673 0.2815
vt 0.1897 0.5446
vt 0.1897 0.5446
vt 0.1897 0.5422
vt 0.0525 0.5446
vt 0.4649 0.5964
vt 0.2664 0.5981
vt 0.2664 0.5947
vt 0.4649 0.5929
vt 0.1589 0.3018
vt 0.1589 0.3012
vt 0.1589 0.3022
vt 0.1589 0.3020
vt 0.8802 0.0819
vt 0.8698 0.0504
vt 0.7707 0.0504
vt 0.6740 0.0504
vt 0.6740 0.0231
vt 0.8314 0.1056
vt 0.2673 0.2835
vt 0.3020 0.2835
vt 0.3020 0.2841
vt 0.2673 0.2841
vt 0.9345 0.2066
vt 0.9404 0.1301
vt 0.2673 0.2844
vt 0.3019 0.2844
vt 0.3019 0.2850
vt 0.2673 0.2850
vt 0.5976 0.0391
vt 0.5976 0.0388
vt 0.6133 0.0394
vt 0.5976 0.9404
vt 0.8961 0.2021
vt 0.9359 0.2059
vt 0.3020 0.2832
vt 0.2673 0.2832
vt 0.2673 0.2826
vt 0.3020 0.2826
vt 0.8941 0.1082
vt 0.8431 0.1302
vt 0.0142 0.8779
vt 0.0149 0.8673
vt 0.0149 0.8673
vt 0.0149 0.8673
vt 0.1127 0.8666
vt 0.1625 0.9251
vt 0.1589 0.9363
vt 0.1208 0.9793
vt 0.0143 0.8779
vt 0.2548 0.3128
vt 0.2478 0.3128
vt 0.2478 0.2788
vt 0.2548 0.2788
vt 0.1589 0.2962
vt 0.1593 0.2892
vt 0.2339 0.2892
vt 0.2346 0.2962
vt 0.4749 0.8106
vt 0.0316 0.8076
vt 0.2665 0.6016
vt 0.0680 0.6068
vt 0.0679 0.6033
vt 0.0679 0.5998
vt 0.2412 0.2788
vt 0.2405 0.2858
vt 0.1659 0.2858
vt 0.1655 0.2788
vt 0.2405 0.2889
vt 0.2475 0.2858
vt 0.2475 0.2889
vt 0.1659 0.2889
vt 0.1589 0.2889
vt 0.1589 0.2858
vt 0.9500 0.5857
vt 0.9576 0.5818
vt 0.9627 0.5912
vt 0.9563 0.5920
vt 0.0147 0.8673
vt 0.0142 0.8779
vt 0.0149 0.8673
vt 0.6347 0.0409
vt 0.6347 0.0406
vt 0.6506 0.0411
vt 0.6347 0.9503
vt 0.1133 0.8651
vt 0.0149 0.8651
vt 0.1636 0.9243
vt 0.2761 0.2854
vt 0.2761 0.2853
vt 0.2794 0.2853
vt 0.2794 0.2853
vt 0.3027 0.3003
vt 0.3024 0.3003
vt 0.3021 0.2844
vt 0.3024 0.2844
vt 0.0124 0.8803
vt 0.1192 0.9809
vt 0.9497 0.5856
vt 0.9418 0.5906
vt 0.9098 0.4207
vt 0.9170 0.4219
vt 0.9413 0.5911
vt 0.9270 0.5828
vt 0.9293 0.5786
vt 0.9316 0.5765
vt 0.9343 0.5767
vt 0.9226 0.4220
vt 0.9171 0.4218
vt 0.9229 0.4221
vt 0.9571 0.5821
vt 0.9814 0.5573
vt 0.9947 0.5784
vt 0.9943 0.5786
vt 0.9811 0.5575
vt 0.9179 0.5889
vt 0.9180 0.5892
vt 0.9628 0.5984
vt 0.9543 0.5979
vt 0.9545 0.5981
vt 0.9407 0.5913
vt 0.9496 0.5773
vt 0.9186 0.4166
vt 0.9236 0.4164
vt 0.2819 0.2868
vt 0.2819 0.2853
vt 0.2819 0.2853
vt 0.2819 0.2868
vt 0.8967 0.4254
vt 0.8972 0.4251
vt 0.9093 0.4205
vt 0.9162 0.4135
vt 0.9223 0.4108
vt 0.9088 0.4205
vt 0.9163 0.4134
vt 0.2759 0.2853
vt 0.2759 0.2885
vt 0.2717 0.2885
vt 0.2717 0.2853
vt 0.9010 0.3561
vt 0.8935 0.3564
vt 0.8958 0.3507
vt 0.8995 0.3507
vt 0.9225 0.4105
vt 0.2816 0.2853
vt 0.2797 0.2853
vt 0.2797 0.2853
vt 0.2816 0.2853
vt 0.8977 0.4248
vt 0.8952 0.3446
vt 0.9031 0.3468
vt 0.8873 0.3485
vt 0.2674 0.2894
vt 0.2673 0.2853
vt 0.2715 0.2853
vt 0.2715 0.2894
vt 0.9069 0.3536
vt 0.9492 0.6749
vt 0.9601 0.6680
vt 0.9645 0.6745
vt 0.9597 0.6817
vt 0.9632 0.5989
vt 0.9946 0.5792
vt 0.9181 0.5895
vt 0.9682 0.6840
vt 0.9704 0.6744
vt 0.9519 0.8684
vt 0.9429 0.8676
vt 0.2396 0.3009
vt 0.2348 0.3009
vt 0.2348 0.2965
vt 0.2396 0.2966
vt 0.9681 0.6658
vt 0.2601 0.2788
vt 0.2642 0.2788
vt 0.2642 0.3096
vt 0.2601 0.3096
vt 0.2551 0.2788
vt 0.2598 0.2788
vt 0.2598 0.3093
vt 0.2551 0.3093
vt 0.9259 0.6720
vt 0.9260 0.6718
vt 0.9452 0.6744
vt 0.9418 0.6817
vt 0.9251 0.6806
vt 0.1589 0.3007
vt 0.1590 0.2965
vt 0.9355 0.8672
vt 0.8970 0.4294
vt 0.9042 0.4284
vt 0.9177 0.5841
vt 0.7003 0.5945
vt 0.7001 0.5897
vt 0.9183 0.5898
vt 0.9264 0.5997
vt 0.9306 0.6647
vt 0.9400 0.5916
vt 0.9124 0.6702
vt 0.9124 0.6700
vt 0.9399 0.6668
vt 0.9368 0.5971
vt 0.9337 0.5978
vt 0.9368 0.6661
vt 0.9073 0.4304
vt 0.9037 0.4174
vt 0.8902 0.3572
vt 0.2671 0.2788
vt 0.2671 0.3096
vt 0.2645 0.3096
vt 0.2645 0.2788
vt 0.8957 0.4195
vt 0.9009 0.4177
vt 0.9318 0.8645
vt 0.9205 0.8691
vt 0.9237 0.8749
vt 0.7030 0.9791
vt 0.7001 0.9731
vt 0.8875 0.3578
vt 0.8821 0.3590
vt 0.9118 0.4295
vt 0.9096 0.4312
vn -1.0000 0.0000 0.0000
vn 0.0000 0.0000 1.0000
vn 0.0000 -1.0000 0.0000
vn 0.0000 1.0000 0.0000
vn 1.0000 0.0000 0.0000
vn 0.0000 0.0000 -1.0000
vn 0.0242 0.9084 -0.4175
vn 0.0976 0.0000 0.9952
vn 0.7748 0.6322 0.0000
vn -0.0976 0.0000 -0.9952
vn -0.0579 0.0000 0.9983
vn 0.9775 0.1487 0.1493
vn 0.9723 0.1629 -0.1678
vn 0.0000 0.9998 -0.0187
vn 0.9884 -0.0201 0.1503
vn 0.9868 -0.0249 -0.1603
vn -0.9993 0.0366 -0.0021
vn 0.9577 0.2879 0.0017
vn 0.9374 -0.0191 -0.3476
vn 0.0000 -1.0000 0.0019
vn -1.0000 0.0001 -0.0042
vn 0.0000 -0.0652 0.9979
vn 0.9992 -0.0394 0.0043
vn 0.7071 0.0000 -0.7071
vn 0.7071 0.0000 0.7071
vn 0.7071 0.7071 0.0000
usemtl Material.001
s off
f 91/1/1 2/2/1 81/3/1 84/4/1 4/5/1 92/6/1 102/7/1 100/8/1
f 82/9/2 6/10/2 80/11/2 83/12/2
f 94/13/2 6/10/2 2/2/2 91/1/2
f 3/14/3 7/15/3 5/16/3 1/17/3
f 84/4/4 81/3/4 2/2/4 6/10/4 82/9/4 85/18/4 8/19/4 4/5/4
f 47/20/2 48/21/2 64/22/2 63/23/2
f 39/24/2 40/25/2 56/26/2 55/27/2
f 45/28/2 47/29/2 63/30/2 61/31/2
f 37/32/2 39/33/2 55/34/2 53/35/2
f 10/36/2 9/37/2 13/38/2 14/39/2
f 12/40/2 11/41/2 15/42/2 16/43/2
f 11/41/2 10/36/2 14/39/2 15/42/2
f 9/37/2 12/40/2 16/43/2 13/38/2
f 25/44/2 26/45/2 41/46/2 42/47/2
f 12/48/2 18/49/2 17/50/2 5/16/2
f 9/51/2 19/52/2 18/53/2 12/54/2
f 1/55/2 20/56/2 19/52/2 9/51/2
f 5/57/2 17/58/2 20/56/2 1/55/2
f 18/53/2 19/52/2 35/59/2 33/60/2
f 11/61/2 22/62/2 21/63/2 7/15/2
f 12/64/2 23/65/2 22/66/2 11/67/2
f 5/16/2 24/68/2 23/69/2 12/48/2
f 7/70/2 21/71/2 24/72/2 5/57/2
f 21/63/2 22/62/2 37/73/2 38/74/2
f 10/75/2 26/45/2 25/44/2 3/14/2
f 11/67/2 27/76/2 26/77/2 10/78/2
f 7/15/2 28/79/2 27/80/2 11/61/2
f 3/81/2 25/82/2 28/83/2 7/70/2
f 17/50/2 18/49/2 33/84/2 34/85/2
f 9/86/2 30/87/2 29/88/2 1/17/2
f 10/78/2 31/89/2 30/90/2 9/51/2
f 3/14/2 32/91/2 31/92/2 10/75/2
f 1/55/2 29/93/2 32/94/2 3/81/2
f 22/66/2 23/65/2 39/33/2 37/32/2
f 29/88/2 30/87/2 45/95/2 46/96/2
f 19/52/2 20/56/2 36/97/2 35/59/2
f 26/77/2 27/76/2 43/98/2 41/99/2
f 23/69/2 24/68/2 40/25/2 39/24/2
f 30/90/2 31/89/2 47/29/2 45/28/2
f 20/56/2 17/58/2 34/100/2 36/97/2
f 27/80/2 28/79/2 44/101/2 43/102/2
f 24/72/2 21/71/2 38/103/2 40/104/2
f 31/92/2 32/91/2 48/21/2 47/20/2
f 28/83/2 25/82/2 42/105/2 44/106/2
f 32/94/2 29/93/2 46/107/2 48/108/2
f 69/109/5 132/110/5 133/111/5 70/112/5
f 60/113/2 58/114/2 72/115/2 74/116/2
f 52/117/2 50/118/2 66/119/2 68/120/2
f 59/121/2 60/122/2 74/123/2 73/124/2
f 40/104/2 38/103/2 54/125/2 56/126/2
f 34/85/2 33/84/2 49/127/2 50/128/2
f 48/108/2 46/107/2 62/129/2 64/130/2
f 42/47/2 41/46/2 57/131/2 58/132/2
f 33/60/2 35/59/2 51/133/2 49/134/2
f 41/99/2 43/98/2 59/135/2 57/136/2
f 35/137/2 36/138/2 52/139/2 51/140/2
f 43/102/2 44/101/2 60/122/2 59/121/2
f 36/97/2 34/100/2 50/118/2 52/117/2
f 44/106/2 42/105/2 58/114/2 60/113/2
f 38/74/2 37/73/2 53/141/2 54/142/2
f 46/96/2 45/95/2 61/143/2 62/144/2
f 76/145/1 75/146/1 77/147/1 78/148/1
f 53/35/2 55/34/2 134/149/2 131/150/2
f 66/151/2 65/152/2 67/153/2 68/154/2
f 62/144/2 61/143/2 75/146/2 76/145/2
f 55/27/2 56/26/2 70/112/2 133/155/2 134/156/2
f 61/31/2 63/30/2 77/157/2 75/158/2
f 63/23/2 64/22/2 78/148/2 77/147/2
f 56/26/3 54/142/3 69/109/3 70/112/3
f 50/128/2 49/127/2 65/152/2 66/151/2
f 64/130/2 62/129/2 76/159/2 78/160/2
f 58/132/2 57/131/2 71/161/2 72/162/2
f 49/134/2 51/133/2 67/163/2 65/164/2
f 51/140/2 52/139/2 68/154/2 67/153/2
f 86/165/5 83/12/5 80/11/5 96/166/5 97/167/5 98/168/5 95/169/5 79/170/5
f 93/171/2 8/19/2 79/170/2 95/169/2
f 85/18/2 82/9/2 83/12/2 86/165/2
f 8/19/2 85/18/2 86/165/2 79/170/2
f 88/172/6 92/6/6 4/5/6 8/19/6 93/171/6 89/173/6
f 97/174/5 96/175/5 94/176/5 90/177/5 117/178/5 116/179/5
f 90/180/2 121/181/2 122/182/2 104/183/2 105/184/2 117/185/2
f 12/186/2 90/187/2 87/188/2 9/189/2
f 10/190/6 88/172/6 89/173/6 11/191/6
f 9/189/1 87/188/1 99/192/1 101/193/1 88/172/1 10/190/1
f 6/10/2 94/13/2 96/194/2 80/11/2
f 87/188/1 91/195/1 100/196/1 99/192/1
f 90/187/2 94/197/2 91/195/2 87/188/2
f 101/193/1 102/7/1 92/6/1 88/172/1
f 124/198/2 128/199/2 112/200/2 114/201/2
f 126/202/2 116/203/2 110/204/2 109/205/2
f 116/206/2 117/207/2 105/208/2 110/209/2
f 129/210/2 130/211/2 115/212/2 113/213/2
f 57/131/6 59/121/6 73/124/6 74/123/6 72/162/6 71/161/6
f 119/214/2 118/215/2 111/216/2 106/217/2
f 130/211/2 124/198/2 114/201/2 115/212/2
f 120/218/2 119/219/2 106/220/2 103/221/2
f 117/222/2 119/223/2 106/224/2 105/225/2
f 126/226/2 125/227/2 108/228/2 109/229/2
f 129/230/2 127/231/2 107/232/2 113/233/2
f 118/215/2 116/234/2 110/235/2 111/216/2
f 128/199/2 129/236/2 113/237/2 112/200/2
f 89/173/5 93/171/5 95/169/5 98/168/5 118/238/5 119/239/5 117/240/5 90/241/5 12/242/5 11/191/5
f 98/168/2 97/167/2 116/243/2 118/238/2
f 87/244/2 99/245/2 128/246/2 123/247/2
f 101/193/2 99/192/2 128/248/2 124/249/2
f 96/250/2 97/251/2 116/252/2 126/253/2
f 96/254/2 94/255/2 125/256/2 126/257/2
f 99/192/2 100/196/2 129/258/2 128/259/2
f 100/260/2 91/261/2 127/262/2 129/263/2
f 100/8/2 102/7/2 130/264/2 129/265/2
f 102/7/2 101/193/2 124/249/2 130/264/2
f 139/266/7 140/267/7 141/268/7 142/269/7 143/270/7 144/271/7 145/272/7 146/273/7 147/274/7
f 118/275/8 130/276/8 124/277/8 119/278/8
f 116/279/3 129/280/3 130/281/3 118/282/3
f 133/111/9 132/110/9 131/283/9 134/284/9
f 54/142/6 53/141/6 131/283/6 132/110/6 69/109/6
f 91/285/2 94/286/2 125/287/2 108/288/2 107/232/2 127/231/2
f 135/289/4 136/290/4 137/291/4 138/292/4
f 124/293/10 136/290/10 135/294/10 119/295/10
f 128/296/1 137/291/1 136/290/1 124/293/1
f 117/297/11 138/298/11 137/291/11 128/296/11
f 155/299/3 153/300/3 157/301/3 159/302/3
f 94/303/2 140/267/2 139/266/2 91/304/2
f 96/305/2 141/268/2 140/267/2 94/303/2
f 126/306/2 142/307/2 141/308/2 96/309/2
f 116/310/2 143/270/2 142/269/2 126/311/2
f 117/312/2 144/271/2 143/270/2 116/310/2
f 128/313/2 145/314/2 144/315/2 117/316/2
f 129/317/2 146/318/2 145/319/2 128/320/2
f 127/321/2 147/274/2 146/273/2 129/322/2
f 91/304/2 139/266/2 147/274/2 127/321/2
f 148/323/5 149/324/5 150/325/5 151/326/5
f 149/324/2 148/323/2 155/299/2 154/327/2
f 149/324/6 199/328/6 224/329/6 225/330/6 205/331/6
f 117/332/2 151/326/2 162/333/2 160/334/2
f 119/335/3 148/323/3 151/326/3 117/332/3
f 148/323/2 119/335/2 153/300/2 155/299/2
f 119/336/2 135/337/2 152/338/2 153/339/2
f 135/340/2 149/324/2 154/327/2 152/341/2
f 156/342/6 158/343/6 159/302/6 157/301/6
f 154/327/5 155/299/5 159/302/5 158/343/5
f 154/327/2 158/343/2 179/344/2 177/345/2
f 153/339/1 152/338/1 156/342/1 157/346/1
f 160/334/3 162/333/3 166/347/3 164/348/3
f 138/349/2 117/350/2 160/351/2 161/352/2
f 150/325/2 138/353/2 161/354/2 163/355/2
f 151/326/2 150/325/2 163/355/2 162/333/2
f 164/348/2 166/347/2 167/356/2 165/357/2
f 162/333/5 163/355/5 167/356/5 166/347/5
f 167/356/2 163/355/2 169/358/2 171/359/2
f 161/360/1 160/361/1 164/362/1 165/363/1
f 185/364/12 184/365/12 173/366/12 175/367/12
f 165/357/2 167/356/2 171/359/2 170/368/2
f 161/369/2 165/370/2 170/371/2 168/372/2
f 163/355/2 161/354/2 168/373/2 169/358/2
f 173/366/4 172/374/4 174/375/4 175/367/4
f 184/365/6 186/376/6 172/374/6 173/366/6
f 186/377/1 187/378/1 174/379/1 172/380/1
f 187/381/2 185/364/2 175/367/2 174/375/2
f 189/382/13 188/383/13 183/384/13 181/385/13
f 158/343/2 156/342/2 178/386/2 179/344/2
f 156/342/2 152/338/2 176/387/2 178/386/2
f 152/341/2 154/327/2 177/345/2 176/388/2
f 180/389/14 181/385/14 183/384/14 182/390/14
f 181/385/4 180/389/4 192/391/4 193/392/4
f 191/393/1 190/394/1 180/395/1 182/396/1
f 188/383/6 191/397/6 182/390/6 183/384/6
f 170/368/2 171/359/2 185/364/2 187/381/2
f 168/398/1 170/399/1 187/400/1 186/401/1
f 171/359/15 169/358/15 184/365/15 185/364/15
f 179/344/6 178/386/6 191/397/6 188/383/6
f 178/402/1 176/403/1 190/404/1 191/405/1
f 189/382/2 190/406/2 203/407/2 202/408/2
f 177/345/16 179/344/16 188/383/16 189/382/16
f 190/406/6 189/382/6 210/409/6 211/410/6
f 180/395/17 190/394/17 195/411/17 192/412/17
f 189/382/18 181/385/18 193/392/18 194/413/18
f 197/414/4 198/415/4 199/328/4 196/416/4
f 135/340/1 138/417/1 197/418/1 196/416/1
f 138/353/2 150/325/2 198/415/2 197/414/2
f 149/324/6 135/340/6 196/416/6 199/328/6
f 203/407/1 200/419/1 204/420/1 207/421/1
f 177/345/2 189/382/2 202/408/2 201/422/2
f 176/388/2 177/345/2 201/422/2 200/419/2
f 190/406/2 176/423/2 200/424/2 203/407/2
f 201/422/5 202/408/5 221/425/5 218/426/5
f 204/420/2 219/427/2 220/428/2 207/421/2
f 199/328/4 198/415/4 223/429/4 224/329/4
f 202/408/4 203/407/4 207/421/4 220/428/4 221/425/4
f 184/365/19 169/358/19 215/430/19 216/431/19
f 168/432/1 186/433/1 209/434/1 208/435/1
f 169/358/3 168/373/3 208/436/3 214/437/3 215/430/3
f 211/410/20 210/409/20 212/438/20 213/439/20
f 195/440/21 190/441/21 211/442/21 213/439/21
f 194/413/22 195/440/22 213/439/22 212/438/22
f 189/382/23 194/413/23 212/438/23 210/409/23
f 214/437/24 217/443/24 216/431/24 215/430/24
f 214/437/6 208/436/6 209/444/6 217/443/6
f 220/428/25 219/427/25 218/426/25 221/425/25
f 200/419/3 201/422/3 218/426/3 219/427/3 204/420/3
f 150/325/3 149/324/3 205/331/3 206/445/3
f 206/445/5 205/331/5 225/330/5 222/446/5
f 222/446/26 225/330/26 224/329/26 223/429/26
f 198/415/2 150/325/2 206/445/2 222/446/2 223/429/2
